PathFileType	3	(X/Y/Z)	F:\ViconData\AntennenMessung\Messung1\Session1\ID06.trc
DataRate	CameraRate	NumFrames	NumMarkers	Units	OrigDataRate	OrigDataStartFrame	OrigNumFrames
120.0	120.0	4	70	mm	120.0	1	948	
Frame#	Time	Ashort			Along			Atop			A4			Bshort			Blong			Btop			B4			Cshort			Clong			Ctop			C4			Dshort			Dlong			Dtop			D4			Eshort			Elong			Etop			E4			Fshort			Flong			Ftop			F4			Gshort			Glong			Gtop			G4			Hshort			Hlong			Htop			H4			I1			I2			I3			I4			I5			WandAshort			WandAlong			WandAtop			WandA4			WandA15			WandBshort			WandB4			WandB5			WandBtop			WandBlong			WandCshort			WandClong			WandCtop			WandC4			WandC5			Acenter			Aantenna			Bcenter			Bantenna			Ccenter			Cantenna			Dcenter			Dantenna			Ecenter			Eantenna			Fcenter			Fantenna			Gcenter			Gantenna			Hcenter			Hantenna			Icenter			Iantenna			
		X1	Y1	Z1	X2	Y2	Z2	X3	Y3	Z3	X4	Y4	Z4	X5	Y5	Z5	X6	Y6	Z6	X7	Y7	Z7	X8	Y8	Z8	X9	Y9	Z9	X10	Y10	Z10	X11	Y11	Z11	X12	Y12	Z12	X13	Y13	Z13	X14	Y14	Z14	X15	Y15	Z15	X16	Y16	Z16	X17	Y17	Z17	X18	Y18	Z18	X19	Y19	Z19	X20	Y20	Z20	X21	Y21	Z21	X22	Y22	Z22	X23	Y23	Z23	X24	Y24	Z24	X25	Y25	Z25	X26	Y26	Z26	X27	Y27	Z27	X28	Y28	Z28	X29	Y29	Z29	X30	Y30	Z30	X31	Y31	Z31	X32	Y32	Z32	X33	Y33	Z33	X34	Y34	Z34	X35	Y35	Z35	X36	Y36	Z36	X37	Y37	Z37	X38	Y38	Z38	X39	Y39	Z39	X40	Y40	Z40	X41	Y41	Z41	X42	Y42	Z42	X43	Y43	Z43	X44	Y44	Z44	X45	Y45	Z45	X46	Y46	Z46	X47	Y47	Z47	X48	Y48	Z48	X49	Y49	Z49	X50	Y50	Z50	X51	Y51	Z51	X52	Y52	Z52	X53	Y53	Z53	X54	Y54	Z54	X55	Y55	Z55	X56	Y56	Z56	X57	Y57	Z57	X58	Y58	Z58	X59	Y59	Z59	X60	Y60	Z60	X61	Y61	Z61	X62	Y62	Z62	X63	Y63	Z63	X64	Y64	Z64	X65	Y65	Z65	X66	Y66	Z66	X67	Y67	Z67	X68	Y68	Z68	X69	Y69	Z69	X70	Y70	Z70	
1	0	-1038.246	214.4933	-1644.1213	-1109.3024	203.93846	-1599.5792	-1063.583	173.16405	-1625.8145	-1054.1449	262.13956	-1634.9647	-1352.9821	234.94403	1004.1275	-1281.442	227.1353	1052.5663	-1322.9259	194.0751	1020.9222	-1284.6233	287.64886	1052.8822	814.0321	187.45145	1209.7054	892.44763	178.48732	1179.1698	844.38202	145.55971	1198.184	860.68774	292.47708	1167.4193	1115.8525	209.47064	-1401.6139	1056.2874	194.11623	-1460.3239	1095.0858	162.30115	-1423.9291	1069.8666	238.63226	-1426.0261	-1204.4539	1685.9177	-1563.3644	-1129.0935	1688.2357	-1606.0438	-1173.1573	1724.3391	-1581.8689	-1133.5347	1581.0397	-1603.5587	-1239.7542	1699.2892	1119.4677	-1309.4441	1698.8604	1071.9293	-1270.4832	1736.3116	1096.8788	-1245.6783	1592.7952	1110.6768	988.85193	1664.1476	1162.3502	955.75964	1702.202	1181.0951	921.73651	1662.3042	1214.9496	939.73529	1659.3695	1160.0031	999.28687	1668.4619	-1579.5117	1058.8818	1669.9115	-1518.799	1025.1281	1707.9613	-1551.2028	1059.3273	1672.1721	-1585.6667	-232.36089	1722.6083	477.36349	-148.15404	1725.3303	477.6153	-195.56883	1761.0444	478.21835	-195.5925	1722.652	509.07724	-195.69331	1725.8446	430.75504																																														-1068.6005	209.98439	-1625.0934	-1073.8652	248.62	-1624.3367	-1321.7731	231.53749	1025.2587	-1320.5813	270.26071	1029.7412	848.05383	183.56223	1196.457	851.80072	222.3418	1194.6947	1088.9034	202.52382	-1428.176	1083.0104	240.86292	-1432.2241	-1171.9512	1686.9175	-1581.7717	-1170.6948	1647.9377	-1581.6707	-1271.0845	1699.0963	1098.0959	-1271.7142	1660.1223	1099.3707	952.99054	1705.3862	1182.6636	972.57092	1732.3768	1162.4369	1026.5829	1669.1259	-1551.7037	1028.0428	1630.1562	-1552.2063	-194.36383	1723.8365	477.47708	-193.10172	1684.8647	476.70068
2	0.0083333333	-1038.2653	214.50769	-1644.132	-1109.3213	203.94675	-1599.5865	-1063.4906	173.22707	-1625.8452	-1054.1514	262.11176	-1634.9321	-1352.8657	235.2785	1004.0753	-1281.4503	227.18938	1052.5673	-1322.9069	194.09172	1020.9225	-1284.7185	287.69427	1052.978	813.93823	187.40349	1209.666	892.33252	178.24023	1179.3021	844.46271	145.31766	1198.3893	860.66681	292.39432	1167.3706	1115.9423	209.91618	-1401.8091	1056.2556	194.11241	-1460.3175	1095.115	162.40257	-1423.8655	1069.8655	238.64438	-1426.025	-1204.4493	1685.9004	-1563.3512	-1129.1033	1688.2488	-1606.0498	-1173.1537	1724.3625	-1581.8771	-1133.5469	1581.0391	-1603.5413	-1239.7548	1699.2964	1119.4633	-1309.4711	1698.8727	1071.9338	-1270.5293	1736.3665	1096.9064	-1245.7162	1592.8591	1110.7117	988.93683	1664.2502	1162.3529	955.83191	1702.1484	1181.1337	921.66931	1662.3196	1214.8625	939.71393	1659.3604	1160.031	999.30676	1668.4517	-1579.4956	1058.8737	1669.9071	-1518.801	1025.132	1707.9626	-1551.2062	1059.3347	1672.1859	-1585.6597	-232.62721	1722.8579	477.34961	-148.1582	1725.3508	477.61063	-195.54929	1761.0431	478.22812	-195.59451	1722.6556	509.09848	-195.67552	1725.8387	430.76514																																														-1068.5281	210.00975	-1625.16	-1073.8188	248.6425	-1624.4404	-1321.6124	231.73849	1025.2965	-1320.2815	270.45532	1029.7948	848.14984	183.4046	1196.415	851.90283	222.17154	1194.4055	1088.8479	202.74219	-1428.3684	1082.897	241.04758	-1432.6444	-1171.9309	1686.9138	-1581.7793	-1170.6582	1647.9347	-1581.6774	-1271.1082	1699.1057	1098.0878	-1271.7139	1660.13	1099.3236	952.90613	1705.4977	1182.7933	972.49274	1732.5719	1162.6848	1026.585	1669.118	-1551.7008	1028.0428	1630.1484	-1552.1971	-194.45323	1723.9845	477.46753	-193.30051	1685.0099	476.66766
3	0.016666667	-1038.2655	214.48828	-1644.1199	-1109.3105	203.98264	-1599.6096	-1063.5863	172.44235	-1625.4089	-1054.1295	262.14172	-1634.9614	-1352.9147	235.28699	1004.0875	-1281.4351	227.09799	1052.63	-1322.9297	194.10606	1020.8948	-1284.7235	287.88101	1052.8954	813.98462	187.42494	1209.61	892.99072	179.20692	1178.6133	844.33972	145.38336	1198.321	860.74445	292.32559	1167.5024	1115.9325	209.90898	-1401.8042	1056.2762	194.12149	-1460.2942	1094.9768	162.17665	-1423.8606	1069.9149	238.7178	-1425.9949	-1204.4497	1685.9152	-1563.3662	-1129.1067	1688.2582	-1606.0636	-1173.1002	1724.4586	-1581.9958	-1133.5474	1581.0371	-1603.5576	-1239.7598	1699.2906	1119.465	-1309.4972	1698.9077	1071.951	-1270.5067	1736.3423	1096.8942	-1245.6995	1592.8412	1110.6917	988.91241	1664.2234	1162.3324	955.70764	1702.2354	1181.084	922.53192	1662.0604	1215.0179	939.72565	1659.3564	1160.0236	999.30524	1668.4561	-1579.4993	1058.8812	1669.9061	-1518.795	1025.135	1707.9578	-1551.2117	1059.3333	1672.1848	-1585.6566	-232.36522	1722.6125	477.36273	-148.15576	1725.3524	477.60953	-195.60869	1761.0725	478.37552	-195.62852	1722.6702	509.10312	-195.68732	1725.8326	430.75684																																														-1068.8519	209.96535	-1624.957	-1074.2714	248.58417	-1624.4921	-1321.6344	231.70338	1025.3301	-1320.3009	270.41217	1029.8965	847.60327	183.92799	1196.4203	850.88977	222.74211	1194.5063	1088.7517	202.71585	-1428.4536	1082.8691	241.02454	-1432.7939	-1171.8463	1686.929	-1581.8425	-1170.5441	1647.951	-1581.6835	-1271.1219	1699.1183	1098.097	-1271.7661	1660.1439	1099.3567	953.29346	1704.999	1182.4473	972.62628	1731.9847	1161.9777	1026.5829	1669.12	-1551.7048	1028.0356	1630.1501	-1552.1998	-194.3949	1723.8479	477.47397	-193.12427	1684.88	476.53024
4	0.025	-1038.2488	214.48846	-1644.1301	-1109.3303	203.94684	-1599.6095	-1063.6239	172.51425	-1625.4851	-1054.1365	262.12292	-1634.9585	-1352.9607	234.9664	1004.1236	-1281.4674	227.24913	1052.4989	-1322.9188	194.09196	1020.9063	-1284.6245	287.71118	1052.8849	814.09222	187.42651	1209.6351	892.33484	178.31218	1179.3054	844.46606	145.33376	1198.3539	860.76746	292.41025	1167.4136	1115.8566	209.48683	-1401.5989	1056.2939	194.07993	-1460.3259	1095.0164	162.25771	-1423.9259	1069.8684	238.61435	-1426.0168	-1204.5461	1686.0065	-1563.1416	-1129.0856	1688.2478	-1606.0538	-1173.0916	1724.4503	-1582.0005	-1133.5359	1581.0227	-1603.5317	-1239.7312	1699.2631	1119.4595	-1309.4797	1698.8676	1071.938	-1270.5055	1736.3225	1096.8965	-1245.6721	1592.8065	1110.6693	988.84357	1664.1387	1162.358	955.96527	1702.2416	1181.1943	922.55371	1662.1143	1215.0231	939.76611	1659.3435	1159.9656	999.30786	1668.4592	-1579.5057	1058.8907	1669.9054	-1518.7947	1025.141	1707.955	-1551.2103	1059.3459	1672.1937	-1585.6643	-232.62482	1722.8431	477.34259	-148.16118	1725.3492	477.60284	-195.56023	1761.0284	478.23795	-195.58864	1722.6582	509.09604	-195.67654	1725.8408	430.76431																																														-1068.8494	209.95029	-1624.9639	-1074.2404	248.57214	-1624.4263	-1321.7867	231.60135	1025.2172	-1320.618	270.32892	1029.6681	848.16089	183.45792	1196.429	851.91815	222.2271	1194.4712	1088.8486	202.50075	-1428.2279	1082.973	240.83717	-1432.3262	-1171.8329	1686.978	-1581.7444	-1170.5239	1648.0009	-1581.4784	-1271.1038	1699.0851	1098.0845	-1271.7299	1660.11	1099.3279	953.61115	1704.9696	1182.543	973.11658	1731.8848	1162.1439	1026.5898	1669.1213	-1551.707	1028.0437	1630.1516	-1552.2056	-194.4585	1723.9756	477.46014	-193.29964	1685.0013	476.64203
